<mxfile host="app.diagrams.net" modified="2020-09-18T05:29:12.610Z" agent="5.0 (Windows NT 10.0; Win64; x64) AppleWebKit/537.36 (KHTML, like Gecko) Chrome/85.0.4183.102 Safari/537.36" etag="LZXq7Htqp3oRgj27Qku1" version="13.7.3" type="github">
  <diagram id="Wnkljl2RLjYRHgIXgYMI" name="Page-1">
    <mxGraphModel dx="868" dy="450" grid="1" gridSize="10" guides="1" tooltips="1" connect="1" arrows="1" fold="1" page="1" pageScale="1" pageWidth="827" pageHeight="1169" math="0" shadow="0">
      <root>
        <mxCell id="0" />
        <mxCell id="1" parent="0" />
        <mxCell id="WsqEyoBrwd8BU_Ynn5J1-3" value="&lt;h1&gt;ConfirmationRequestId&lt;/h1&gt;&lt;p&gt;&amp;nbsp;it tells whether particular requestId&amp;nbsp; is eligible for the withdrawal or not.&lt;/p&gt;" style="text;html=1;strokeColor=none;fillColor=none;spacing=5;spacingTop=-20;whiteSpace=wrap;overflow=hidden;rounded=0;" parent="1" vertex="1">
          <mxGeometry x="10" y="20" width="310" height="120" as="geometry" />
        </mxCell>
        <mxCell id="WsqEyoBrwd8BU_Ynn5J1-8" style="edgeStyle=orthogonalEdgeStyle;rounded=0;orthogonalLoop=1;jettySize=auto;html=1;exitX=0.5;exitY=1;exitDx=0;exitDy=0;" parent="1" source="WsqEyoBrwd8BU_Ynn5J1-4" edge="1">
          <mxGeometry relative="1" as="geometry">
            <mxPoint x="90" y="240" as="targetPoint" />
          </mxGeometry>
        </mxCell>
        <mxCell id="WsqEyoBrwd8BU_Ynn5J1-4" value="" style="rounded=0;whiteSpace=wrap;html=1;" parent="1" vertex="1">
          <mxGeometry x="30" y="140" width="120" height="60" as="geometry" />
        </mxCell>
        <mxCell id="WsqEyoBrwd8BU_Ynn5J1-5" value="&lt;font style=&quot;font-size: 18px&quot;&gt;UID&lt;/font&gt;" style="text;html=1;strokeColor=none;fillColor=none;align=center;verticalAlign=middle;whiteSpace=wrap;rounded=0;" parent="1" vertex="1">
          <mxGeometry x="70" y="160" width="40" height="20" as="geometry" />
        </mxCell>
        <mxCell id="WsqEyoBrwd8BU_Ynn5J1-16" style="edgeStyle=orthogonalEdgeStyle;rounded=0;orthogonalLoop=1;jettySize=auto;html=1;exitX=0.5;exitY=1;exitDx=0;exitDy=0;" parent="1" source="WsqEyoBrwd8BU_Ynn5J1-9" edge="1">
          <mxGeometry relative="1" as="geometry">
            <mxPoint x="90" y="360" as="targetPoint" />
          </mxGeometry>
        </mxCell>
        <mxCell id="WsqEyoBrwd8BU_Ynn5J1-9" value="if no_of_confirmation&lt;br&gt;&amp;gt;total parties/2" style="rounded=0;whiteSpace=wrap;html=1;" parent="1" vertex="1">
          <mxGeometry x="30" y="240" width="120" height="60" as="geometry" />
        </mxCell>
        <mxCell id="WsqEyoBrwd8BU_Ynn5J1-14" value="make request for the conffirmation" style="text;html=1;strokeColor=none;fillColor=none;align=center;verticalAlign=middle;whiteSpace=wrap;rounded=0;" parent="1" vertex="1">
          <mxGeometry x="120" y="210" width="120" height="20" as="geometry" />
        </mxCell>
        <mxCell id="WsqEyoBrwd8BU_Ynn5J1-17" value="RequestId confirmed" style="rounded=0;whiteSpace=wrap;html=1;" parent="1" vertex="1">
          <mxGeometry x="40" y="360" width="120" height="60" as="geometry" />
        </mxCell>
        <mxCell id="WsqEyoBrwd8BU_Ynn5J1-18" value="&lt;h1&gt;&lt;font color=&quot;#33001a&quot;&gt;ConfirmRequestSign&lt;/font&gt;&lt;/h1&gt;&lt;p&gt;&lt;font color=&quot;#33001a&quot;&gt;it confirm that address linked with the particular RequestId is authentic signer or not.&lt;/font&gt;&lt;/p&gt;" style="text;html=1;strokeColor=none;fillColor=none;spacing=5;spacingTop=-20;whiteSpace=wrap;overflow=hidden;rounded=0;" parent="1" vertex="1">
          <mxGeometry x="490" y="10" width="320" height="120" as="geometry" />
        </mxCell>
        <mxCell id="WsqEyoBrwd8BU_Ynn5J1-27" style="edgeStyle=orthogonalEdgeStyle;rounded=0;orthogonalLoop=1;jettySize=auto;html=1;exitX=1;exitY=1;exitDx=0;exitDy=0;" parent="1" source="WsqEyoBrwd8BU_Ynn5J1-20" edge="1">
          <mxGeometry relative="1" as="geometry">
            <mxPoint x="620" y="230" as="targetPoint" />
          </mxGeometry>
        </mxCell>
        <mxCell id="WsqEyoBrwd8BU_Ynn5J1-20" value="uid" style="ellipse;whiteSpace=wrap;html=1;" parent="1" vertex="1">
          <mxGeometry x="510" y="120" width="70" height="40" as="geometry" />
        </mxCell>
        <mxCell id="WsqEyoBrwd8BU_Ynn5J1-28" style="edgeStyle=orthogonalEdgeStyle;rounded=0;orthogonalLoop=1;jettySize=auto;html=1;exitX=0;exitY=1;exitDx=0;exitDy=0;" parent="1" source="WsqEyoBrwd8BU_Ynn5J1-21" edge="1">
          <mxGeometry relative="1" as="geometry">
            <mxPoint x="620" y="220" as="targetPoint" />
          </mxGeometry>
        </mxCell>
        <mxCell id="WsqEyoBrwd8BU_Ynn5J1-21" value="address of&amp;nbsp; verifying contract" style="ellipse;whiteSpace=wrap;html=1;" parent="1" vertex="1">
          <mxGeometry x="660" y="100" width="60" height="70" as="geometry" />
        </mxCell>
        <mxCell id="WsqEyoBrwd8BU_Ynn5J1-38" style="edgeStyle=orthogonalEdgeStyle;rounded=0;orthogonalLoop=1;jettySize=auto;html=1;exitX=0.5;exitY=1;exitDx=0;exitDy=0;" parent="1" source="WsqEyoBrwd8BU_Ynn5J1-22" edge="1">
          <mxGeometry relative="1" as="geometry">
            <mxPoint x="680" y="350" as="targetPoint" />
          </mxGeometry>
        </mxCell>
        <mxCell id="WsqEyoBrwd8BU_Ynn5J1-22" value="message" style="rounded=0;whiteSpace=wrap;html=1;" parent="1" vertex="1">
          <mxGeometry x="560" y="230" width="120" height="40" as="geometry" />
        </mxCell>
        <mxCell id="WsqEyoBrwd8BU_Ynn5J1-35" value="prefixed after hasihng ,&amp;nbsp;" style="text;html=1;align=center;verticalAlign=middle;resizable=0;points=[];autosize=1;" parent="1" vertex="1">
          <mxGeometry x="640" y="190" width="140" height="20" as="geometry" />
        </mxCell>
        <mxCell id="WsqEyoBrwd8BU_Ynn5J1-39" style="edgeStyle=orthogonalEdgeStyle;rounded=0;orthogonalLoop=1;jettySize=auto;html=1;exitX=0.5;exitY=1;exitDx=0;exitDy=0;" parent="1" source="WsqEyoBrwd8BU_Ynn5J1-37" edge="1">
          <mxGeometry relative="1" as="geometry">
            <mxPoint x="680" y="320" as="targetPoint" />
          </mxGeometry>
        </mxCell>
        <mxCell id="WsqEyoBrwd8BU_Ynn5J1-37" value="signObj" style="ellipse;whiteSpace=wrap;html=1;" parent="1" vertex="1">
          <mxGeometry x="710" y="230" width="90" height="40" as="geometry" />
        </mxCell>
        <mxCell id="WsqEyoBrwd8BU_Ynn5J1-43" style="edgeStyle=orthogonalEdgeStyle;rounded=0;orthogonalLoop=1;jettySize=auto;html=1;exitX=0.5;exitY=1;exitDx=0;exitDy=0;" parent="1" source="WsqEyoBrwd8BU_Ynn5J1-40" edge="1">
          <mxGeometry relative="1" as="geometry">
            <mxPoint x="680" y="460" as="targetPoint" />
          </mxGeometry>
        </mxCell>
        <mxCell id="WsqEyoBrwd8BU_Ynn5J1-40" value="signer address" style="rounded=0;whiteSpace=wrap;html=1;" parent="1" vertex="1">
          <mxGeometry x="620" y="350" width="120" height="60" as="geometry" />
        </mxCell>
        <mxCell id="WsqEyoBrwd8BU_Ynn5J1-42" value="recovering signer address&lt;br&gt;" style="text;html=1;align=center;verticalAlign=middle;resizable=0;points=[];autosize=1;" parent="1" vertex="1">
          <mxGeometry x="445" y="290" width="150" height="20" as="geometry" />
        </mxCell>
        <mxCell id="WsqEyoBrwd8BU_Ynn5J1-44" value="ParicipantsExist(signerAddress)" style="rounded=1;whiteSpace=wrap;html=1;" parent="1" vertex="1">
          <mxGeometry x="600" y="470" width="180" height="60" as="geometry" />
        </mxCell>
        <mxCell id="WsqEyoBrwd8BU_Ynn5J1-46" style="edgeStyle=orthogonalEdgeStyle;rounded=0;orthogonalLoop=1;jettySize=auto;html=1;exitX=0.5;exitY=1;exitDx=0;exitDy=0;" parent="1" source="WsqEyoBrwd8BU_Ynn5J1-44" target="WsqEyoBrwd8BU_Ynn5J1-44" edge="1">
          <mxGeometry relative="1" as="geometry" />
        </mxCell>
      </root>
    </mxGraphModel>
  </diagram>
</mxfile>
